<svg id="visual" viewBox="0 0 960 540" width="960" height="540" xmlns="http://www.w3.org/2000/svg" xmlns:xlink="http://www.w3.org/1999/xlink" version="1.1"><rect x="0" y="0" width="960" height="540" fill="#FFF8EB"></rect><path d="M0 99L20 97C40 95 80 91 120 93.8C160 96.7 200 106.3 240 111.2C280 116 320 116 360 110.8C400 105.7 440 95.3 480 97.2C520 99 560 113 600 120.3C640 127.7 680 128.3 720 124.7C760 121 800 113 840 106.2C880 99.3 920 93.7 940 90.8L960 88L960 0L940 0C920 0 880 0 840 0C800 0 760 0 720 0C680 0 640 0 600 0C560 0 520 0 480 0C440 0 400 0 360 0C320 0 280 0 240 0C200 0 160 0 120 0C80 0 40 0 20 0L0 0Z" fill="#fede9a"></path><path d="M0 80L20 77C40 74 80 68 120 68.7C160 69.3 200 76.7 240 77.7C280 78.7 320 73.3 360 75.2C400 77 440 86 480 88.7C520 91.3 560 87.7 600 87.2C640 86.7 680 89.3 720 90.2C760 91 800 90 840 87C880 84 920 79 940 76.5L960 74L960 0L940 0C920 0 880 0 840 0C800 0 760 0 720 0C680 0 640 0 600 0C560 0 520 0 480 0C440 0 400 0 360 0C320 0 280 0 240 0C200 0 160 0 120 0C80 0 40 0 20 0L0 0Z" fill="#fed37b"></path><path d="M0 54L20 56.5C40 59 80 64 120 63.7C160 63.3 200 57.7 240 58.7C280 59.7 320 67.3 360 68.2C400 69 440 63 480 57.2C520 51.3 560 45.7 600 44C640 42.3 680 44.7 720 46.2C760 47.7 800 48.3 840 51.5C880 54.7 920 60.3 940 63.2L960 66L960 0L940 0C920 0 880 0 840 0C800 0 760 0 720 0C680 0 640 0 600 0C560 0 520 0 480 0C440 0 400 0 360 0C320 0 280 0 240 0C200 0 160 0 120 0C80 0 40 0 20 0L0 0Z" fill="#fec95a"></path><path d="M0 43L20 42.8C40 42.7 80 42.3 120 37.8C160 33.3 200 24.7 240 25.2C280 25.7 320 35.3 360 39.8C400 44.3 440 43.7 480 41.3C520 39 560 35 600 30.8C640 26.7 680 22.3 720 23.2C760 24 800 30 840 33.3C880 36.7 920 37.3 940 37.7L960 38L960 0L940 0C920 0 880 0 840 0C800 0 760 0 720 0C680 0 640 0 600 0C560 0 520 0 480 0C440 0 400 0 360 0C320 0 280 0 240 0C200 0 160 0 120 0C80 0 40 0 20 0L0 0Z" fill="#fdbe35"></path></svg>