<svg id="visual" viewBox="0 0 960 540" width="960" height="540" xmlns="http://www.w3.org/2000/svg" xmlns:xlink="http://www.w3.org/1999/xlink" version="1.1"><rect x="0" y="0" width="960" height="540" fill="#FFF8EB"></rect><path d="M0 353L14.5 361C29 369 58 385 87.2 392.3C116.3 399.7 145.7 398.3 174.8 398.5C204 398.7 233 400.3 262 392.7C291 385 320 368 349 358.5C378 349 407 347 436.2 343.7C465.3 340.3 494.7 335.7 523.8 345.5C553 355.3 582 379.7 611 388C640 396.3 669 388.7 698 384.3C727 380 756 379 785.2 378C814.3 377 843.7 376 872.8 371.5C902 367 931 359 945.5 355L960 351L960 541L945.5 541C931 541 902 541 872.8 541C843.7 541 814.3 541 785.2 541C756 541 727 541 698 541C669 541 640 541 611 541C582 541 553 541 523.8 541C494.7 541 465.3 541 436.2 541C407 541 378 541 349 541C320 541 291 541 262 541C233 541 204 541 174.8 541C145.7 541 116.3 541 87.2 541C58 541 29 541 14.5 541L0 541Z" fill="#fede9a"></path><path d="M0 433L14.5 430.5C29 428 58 423 87.2 420.8C116.3 418.7 145.7 419.3 174.8 421.7C204 424 233 428 262 423.7C291 419.3 320 406.7 349 400.3C378 394 407 394 436.2 391.7C465.3 389.3 494.7 384.7 523.8 384.7C553 384.7 582 389.3 611 392C640 394.7 669 395.3 698 393.2C727 391 756 386 785.2 381.7C814.3 377.3 843.7 373.7 872.8 381.7C902 389.7 931 409.3 945.5 419.2L960 429L960 541L945.5 541C931 541 902 541 872.8 541C843.7 541 814.3 541 785.2 541C756 541 727 541 698 541C669 541 640 541 611 541C582 541 553 541 523.8 541C494.7 541 465.3 541 436.2 541C407 541 378 541 349 541C320 541 291 541 262 541C233 541 204 541 174.8 541C145.7 541 116.3 541 87.2 541C58 541 29 541 14.5 541L0 541Z" fill="#fed683"></path><path d="M0 441L14.5 438.8C29 436.7 58 432.3 87.2 426.7C116.3 421 145.7 414 174.8 418C204 422 233 437 262 439.7C291 442.3 320 432.7 349 433C378 433.3 407 443.7 436.2 446.7C465.3 449.7 494.7 445.3 523.8 442.8C553 440.3 582 439.7 611 437.5C640 435.3 669 431.7 698 433.3C727 435 756 442 785.2 437.7C814.3 433.3 843.7 417.7 872.8 412.2C902 406.7 931 411.3 945.5 413.7L960 416L960 541L945.5 541C931 541 902 541 872.8 541C843.7 541 814.3 541 785.2 541C756 541 727 541 698 541C669 541 640 541 611 541C582 541 553 541 523.8 541C494.7 541 465.3 541 436.2 541C407 541 378 541 349 541C320 541 291 541 262 541C233 541 204 541 174.8 541C145.7 541 116.3 541 87.2 541C58 541 29 541 14.5 541L0 541Z" fill="#fece6b"></path><path d="M0 480L14.5 475C29 470 58 460 87.2 460.3C116.3 460.7 145.7 471.3 174.8 475.7C204 480 233 478 262 473.5C291 469 320 462 349 456.2C378 450.3 407 445.7 436.2 447.8C465.3 450 494.7 459 523.8 462C553 465 582 462 611 459.8C640 457.7 669 456.3 698 460.7C727 465 756 475 785.2 477C814.3 479 843.7 473 872.8 469.2C902 465.3 931 463.7 945.5 462.8L960 462L960 541L945.5 541C931 541 902 541 872.8 541C843.7 541 814.3 541 785.2 541C756 541 727 541 698 541C669 541 640 541 611 541C582 541 553 541 523.8 541C494.7 541 465.3 541 436.2 541C407 541 378 541 349 541C320 541 291 541 262 541C233 541 204 541 174.8 541C145.7 541 116.3 541 87.2 541C58 541 29 541 14.5 541L0 541Z" fill="#fec652"></path><path d="M0 496L14.5 496C29 496 58 496 87.2 498.7C116.3 501.3 145.7 506.7 174.8 506.5C204 506.3 233 500.7 262 497.2C291 493.7 320 492.3 349 493.3C378 494.3 407 497.7 436.2 495.2C465.3 492.7 494.7 484.3 523.8 480.3C553 476.3 582 476.7 611 481.2C640 485.7 669 494.3 698 498.5C727 502.7 756 502.3 785.2 498C814.3 493.7 843.7 485.3 872.8 481.7C902 478 931 479 945.5 479.5L960 480L960 541L945.5 541C931 541 902 541 872.8 541C843.7 541 814.3 541 785.2 541C756 541 727 541 698 541C669 541 640 541 611 541C582 541 553 541 523.8 541C494.7 541 465.3 541 436.2 541C407 541 378 541 349 541C320 541 291 541 262 541C233 541 204 541 174.8 541C145.7 541 116.3 541 87.2 541C58 541 29 541 14.5 541L0 541Z" fill="#fdbe35"></path></svg>