<svg id="visual" viewBox="0 0 960 540" width="960" height="540" xmlns="http://www.w3.org/2000/svg" xmlns:xlink="http://www.w3.org/1999/xlink" version="1.1"><rect x="0" y="0" width="960" height="540" fill="#FFF8EB"></rect><path d="M802 540L807 531.8C812 523.7 822 507.3 827.7 491C833.3 474.7 834.7 458.3 833 442C831.3 425.7 826.7 409.3 827.2 393C827.7 376.7 833.3 360.3 831.7 344C830 327.7 821 311.3 822.5 294.8C824 278.3 836 261.7 841.7 245.2C847.3 228.7 846.7 212.3 848.7 196C850.7 179.7 855.3 163.3 849.7 147C844 130.7 828 114.3 825.2 98C822.3 81.7 832.7 65.3 833.2 49C833.7 32.7 824.3 16.3 819.7 8.2L815 0L960 0L960 8.2C960 16.3 960 32.7 960 49C960 65.3 960 81.7 960 98C960 114.3 960 130.7 960 147C960 163.3 960 179.7 960 196C960 212.3 960 228.7 960 245.2C960 261.7 960 278.3 960 294.8C960 311.3 960 327.7 960 344C960 360.3 960 376.7 960 393C960 409.3 960 425.7 960 442C960 458.3 960 474.7 960 491C960 507.3 960 523.7 960 531.8L960 540Z" fill="#fed886"></path><path d="M868 540L868 531.8C868 523.7 868 507.3 872.3 491C876.7 474.7 885.3 458.3 888.3 442C891.3 425.7 888.7 409.3 888 393C887.3 376.7 888.7 360.3 883.2 344C877.7 327.7 865.3 311.3 866.7 294.8C868 278.3 883 261.7 882.8 245.2C882.7 228.7 867.3 212.3 861 196C854.7 179.7 857.3 163.3 862.3 147C867.3 130.7 874.7 114.3 881 98C887.3 81.7 892.7 65.3 891.7 49C890.7 32.7 883.3 16.3 879.7 8.2L876 0L960 0L960 8.2C960 16.3 960 32.7 960 49C960 65.3 960 81.7 960 98C960 114.3 960 130.7 960 147C960 163.3 960 179.7 960 196C960 212.3 960 228.7 960 245.2C960 261.7 960 278.3 960 294.8C960 311.3 960 327.7 960 344C960 360.3 960 376.7 960 393C960 409.3 960 425.7 960 442C960 458.3 960 474.7 960 491C960 507.3 960 523.7 960 531.8L960 540Z" fill="#fecb60"></path><path d="M915 540L913.2 531.8C911.3 523.7 907.7 507.3 910.2 491C912.7 474.7 921.3 458.3 921.5 442C921.7 425.7 913.3 409.3 912.3 393C911.3 376.7 917.7 360.3 915.2 344C912.7 327.7 901.3 311.3 901.7 294.8C902 278.3 914 261.7 917.5 245.2C921 228.7 916 212.3 911.3 196C906.7 179.7 902.3 163.3 904.5 147C906.7 130.7 915.3 114.3 921 98C926.7 81.7 929.3 65.3 927.8 49C926.3 32.7 920.7 16.3 917.8 8.2L915 0L960 0L960 8.2C960 16.3 960 32.7 960 49C960 65.3 960 81.7 960 98C960 114.3 960 130.7 960 147C960 163.3 960 179.7 960 196C960 212.3 960 228.7 960 245.2C960 261.7 960 278.3 960 294.8C960 311.3 960 327.7 960 344C960 360.3 960 376.7 960 393C960 409.3 960 425.7 960 442C960 458.3 960 474.7 960 491C960 507.3 960 523.7 960 531.8L960 540Z" fill="#fdbe35"></path></svg>